<svg xmlns="http://www.w3.org/2000/svg" viewBox="0 0 151.85 226.38"><defs><style>.cls-1{fill:#741341;}.cls-2{fill:#fff;}</style></defs><title>logo</title><g id="Layer_2" data-name="Layer 2"><g id="Layer_1-2" data-name="Layer 1"><path class="cls-1" d="M151.84,205H0V0H151.85ZM4.16,200.86H147.69V4.16H4.16Z"/><path class="cls-1" d="M15.19,15.2H34.77c15.77,0,26.67,10.83,26.67,25v.15c0,14.12-10.9,25.09-26.67,25.09H15.19Zm11,10V55.43h8.54c9,0,15.13-6.1,15.13-15V40.3c0-8.89-6.1-15.13-15.13-15.13Z"/><path class="cls-1" d="M125.62,78.46h11v50.19h-11Z"/><path class="cls-1" d="M113,15.2v11H69.8v-11Z"/><path class="cls-1" d="M113,34.77v11H69.8v-11Z"/><path class="cls-1" d="M113,54.35v11H69.8v-11Z"/><path class="cls-1" d="M30.46,149.83H15.19V139.65H56.78v10.18H41.5v40h-11Z"/><path class="cls-1" d="M64.72,164.89v-.14c0-14.27,11.25-26,26.74-26s26.61,11.54,26.61,25.81v.15c0,14.26-11.26,25.95-26.75,25.95S64.72,179.16,64.72,164.89Zm41.8,0v-.14c0-8.61-6.31-15.78-15.2-15.78s-15.06,7-15.06,15.63v.15c0,8.6,6.31,15.77,15.2,15.77S106.52,173.49,106.52,164.89Z"/><rect class="cls-1" x="125.62" y="178.8" width="11.04" height="11.04"/><path class="cls-2" d="M15.18,78.46h23.3c5.74,0,10.25,1.57,13.13,4.44a11.56,11.56,0,0,1,3.44,8.54v.14c0,5.66-3,8.82-6.6,10.83,5.81,2.22,9.39,5.59,9.39,12.33v.14c0,9.18-7.46,13.77-18.78,13.77H15.18ZM44.08,93.3c0-3.3-2.59-5.16-7.25-5.16H25.93V98.75H36.12c4.87,0,8-1.58,8-5.31ZM38.7,107.93H25.93v11H39.06c4.87,0,7.81-1.72,7.81-5.45v-.14C46.87,110,44.36,107.93,38.7,107.93Z"/><path class="cls-2" d="M69.69,78.46h23c6.38,0,11.32,1.79,14.62,5.09,2.8,2.79,4.31,6.74,4.31,11.47v.15c0,8.1-4.38,13.19-10.76,15.56l12.26,17.92H100.16L89.41,112.59H80.73v16.06h-11Zm22.23,24.38c5.38,0,8.46-2.87,8.46-7.1v-.15c0-4.73-3.3-7.17-8.68-7.17h-11v14.42Z"/><path class="cls-2" d="M0,216.18H4.26a3.7,3.7,0,0,1,2.62.89,2.24,2.24,0,0,1,.64,1.6v0A2.43,2.43,0,0,1,5.93,221c1.19.35,2.15,1,2.15,2.41v0c0,1.72-1.45,2.73-3.63,2.73H0Zm6.38,2.65c0-1-.79-1.63-2.22-1.63h-3v3.44h3c1.36,0,2.31-.61,2.31-1.78Zm-2.11,2.81H1.11v3.54H4.47c1.52,0,2.46-.68,2.46-1.79v0C6.93,222.28,6,221.64,4.27,221.64Z"/><path class="cls-2" d="M30.33,216.18h4.3a4,4,0,0,1,2.84,1,2.77,2.77,0,0,1,.78,2v0a2.93,2.93,0,0,1-2.72,2.91l3.07,4.09H37.22l-2.9-3.89H31.46v3.89H30.33Zm4.2,5.11c1.5,0,2.57-.77,2.57-2.06v0c0-1.23-.94-2-2.56-2H31.46v4.06Z"/><path class="cls-2" d="M64.37,216.11h1.06L70,226.19H68.77l-1.17-2.64H62.15L61,226.19H59.81Zm2.79,6.41-2.28-5.09-2.28,5.09Z"/><path class="cls-2" d="M91.11,224.73l.7-.83a4.73,4.73,0,0,0,3.43,1.42c1.34,0,2.23-.72,2.23-1.7v0c0-.93-.5-1.46-2.6-1.9-2.3-.5-3.36-1.25-3.36-2.89v0c0-1.57,1.38-2.73,3.29-2.73a5.23,5.23,0,0,1,3.51,1.23l-.66.87a4.34,4.34,0,0,0-2.88-1.08c-1.3,0-2.13.71-2.13,1.61v0c0,.94.51,1.47,2.71,1.94s3.26,1.3,3.26,2.83v0c0,1.72-1.43,2.83-3.41,2.83A5.82,5.82,0,0,1,91.11,224.73Z"/><path class="cls-2" d="M121,216.18h1.13v10H121Z"/><path class="cls-2" d="M145.09,216.18h1.13v9h5.63v1h-6.76Z"/><path class="cls-2" d="M0,216.18H4.51a3.62,3.62,0,0,1,2.62.89,2.25,2.25,0,0,1,.68,1.67v0A2.4,2.4,0,0,1,6.37,221a2.46,2.46,0,0,1,2,2.44v0c0,1.79-1.48,2.75-3.72,2.75H0ZM6,219c0-.79-.63-1.28-1.76-1.28H1.74v2.67H4.15c1.13,0,1.89-.45,1.89-1.37Zm-1.5,2.88H1.74v2.76H4.66c1.21,0,1.94-.48,1.94-1.38v0C6.6,222.41,5.93,221.91,4.54,221.91Z"/><path class="cls-2" d="M30.18,216.18h4.48a4,4,0,0,1,2.9,1,3,3,0,0,1,.83,2.17v0a3,3,0,0,1-2.38,3l2.71,3.8H36.63l-2.47-3.5H32v3.5H30.18Zm4.35,5c1.27,0,2.07-.67,2.07-1.69v0c0-1.08-.77-1.67-2.08-1.67H32v3.38Z"/><path class="cls-2" d="M63.94,216.11h1.64L70,226.23H68.13l-1-2.42H62.36l-1,2.42H59.52Zm2.53,6.13-1.74-4-1.72,4Z"/><path class="cls-2" d="M90.7,224.77l1.06-1.27a4.62,4.62,0,0,0,3.17,1.31c1.09,0,1.78-.52,1.78-1.26v0c0-.72-.4-1.11-2.27-1.54-2.14-.51-3.34-1.15-3.34-3v0c0-1.72,1.43-2.91,3.43-2.91a5.59,5.59,0,0,1,3.64,1.26l-.94,1.34a4.54,4.54,0,0,0-2.73-1c-1,0-1.64.53-1.64,1.19v0c0,.77.46,1.11,2.4,1.57,2.13.52,3.22,1.28,3.22,2.95v0c0,1.88-1.48,3-3.59,3A6.2,6.2,0,0,1,90.7,224.77Z"/><path class="cls-2" d="M120.48,216.18h1.76v10h-1.76Z"/><path class="cls-2" d="M144.75,216.18h1.76v8.44h5.28v1.61h-7Z"/></g></g></svg>