<?xml version="1.0" encoding="UTF-8"?>
<svg id="Layer_1" data-name="Layer 1" xmlns="http://www.w3.org/2000/svg" viewBox="0 0 1920 1080">
  <defs>
    <style>
      .cls-1 {
        fill: #de1454;
      }

      .cls-1, .cls-2 {
        stroke-width: 0px;
      }

      .cls-2 {
        fill: #fff;
      }
    </style>
  </defs>
  <g>
    <path class="cls-2" d="M694.86,664.34v-43.41h8.29v43.41h-8.29ZM698.94,664.34v-6.84h12.7c2.63,0,4.81-.59,6.55-1.78,1.73-1.18,3.03-2.87,3.88-5.06.86-2.19,1.28-4.82,1.28-7.89,0-2.59-.27-4.82-.82-6.71-.55-1.88-1.37-3.43-2.47-4.64-1.1-1.21-2.48-2.12-4.14-2.73-1.67-.61-3.62-.92-5.85-.92h-11.12v-6.84h10.85c5.13,0,9.33.86,12.6,2.56,3.27,1.71,5.68,4.16,7.24,7.33,1.56,3.18,2.34,7.01,2.34,11.48,0,3.16-.37,5.95-1.12,8.39-.75,2.43-1.75,4.52-3.03,6.25-1.27,1.73-2.76,3.15-4.47,4.24-1.71,1.1-3.54,1.9-5.49,2.4-1.95.5-3.96.76-6.02.76h-12.89Z"/>
    <path class="cls-2" d="M754.46,665.19c-2.76,0-5.23-.39-7.4-1.18-2.17-.79-4-1.94-5.49-3.45-1.49-1.51-2.63-3.34-3.42-5.49-.79-2.15-1.18-4.58-1.18-7.3s.38-5.22,1.15-7.5c.77-2.28,1.88-4.25,3.32-5.92s3.21-2.96,5.29-3.88c2.08-.92,4.46-1.38,7.14-1.38,2.5,0,4.74.42,6.71,1.25,1.97.83,3.64,2.07,5,3.72,1.36,1.64,2.37,3.68,3.03,6.12.66,2.43.88,5.25.66,8.45l-26.9.2v-4.8l22.1-.2-2.89,2.7c.26-2.5.07-4.55-.59-6.15-.66-1.6-1.6-2.78-2.83-3.55-1.23-.77-2.63-1.15-4.21-1.15-1.8,0-3.38.47-4.74,1.41-1.36.94-2.4,2.3-3.12,4.08-.72,1.78-1.09,3.94-1.09,6.48,0,3.81.84,6.67,2.53,8.55,1.69,1.89,4,2.83,6.94,2.83,1.31,0,2.42-.16,3.32-.49.9-.33,1.65-.77,2.27-1.32.61-.55,1.11-1.17,1.48-1.87.37-.7.67-1.45.89-2.24l7.24,1.64c-.35,1.62-.92,3.07-1.71,4.34-.79,1.27-1.81,2.37-3.06,3.29-1.25.92-2.73,1.62-4.44,2.1-1.71.48-3.71.72-5.99.72Z"/>
    <path class="cls-2" d="M789.42,665.19c-2.32,0-4.42-.23-6.28-.69-1.86-.46-3.45-1.12-4.77-1.97-1.32-.86-2.37-1.88-3.16-3.09-.79-1.21-1.27-2.55-1.45-4.04l6.51-2.43c.09,1.14.53,2.16,1.31,3.06.79.9,1.88,1.61,3.29,2.14,1.4.53,3.09.79,5.07.79,2.19,0,3.89-.34,5.1-1.02,1.21-.68,1.81-1.66,1.81-2.93,0-.92-.33-1.66-.99-2.2-.66-.55-1.61-1.01-2.86-1.38-1.25-.37-2.75-.73-4.51-1.09-1.62-.35-3.26-.76-4.9-1.22-1.64-.46-3.16-1.07-4.54-1.84-1.38-.77-2.5-1.78-3.35-3.03s-1.28-2.84-1.28-4.77c0-2.11.56-3.92,1.68-5.46,1.12-1.53,2.74-2.74,4.87-3.62,2.13-.88,4.7-1.31,7.73-1.31,2.85,0,5.32.39,7.4,1.18,2.08.79,3.78,1.92,5.1,3.39,1.32,1.47,2.15,3.21,2.5,5.23l-6.84,2.17c-.13-1.23-.55-2.27-1.25-3.12-.7-.86-1.64-1.5-2.83-1.94-1.18-.44-2.57-.66-4.14-.66-2.02,0-3.6.35-4.74,1.05-1.14.7-1.71,1.64-1.71,2.83,0,.97.36,1.73,1.08,2.3.72.57,1.73,1.03,3.03,1.38,1.29.35,2.77.7,4.44,1.05,1.75.35,3.45.76,5.1,1.22,1.64.46,3.12,1.06,4.44,1.81,1.31.75,2.37,1.72,3.16,2.93.79,1.21,1.18,2.75,1.18,4.64,0,2.28-.61,4.22-1.84,5.82-1.23,1.6-2.97,2.81-5.23,3.62-2.26.81-4.97,1.22-8.12,1.22Z"/>
    <path class="cls-2" d="M814.32,624.54c-1.67,0-2.95-.36-3.85-1.09-.9-.72-1.35-1.76-1.35-3.12s.45-2.4,1.35-3.12c.9-.72,2.18-1.09,3.85-1.09,1.75,0,3.07.35,3.95,1.05.88.7,1.32,1.75,1.32,3.16s-.45,2.4-1.35,3.12c-.9.72-2.2,1.09-3.91,1.09ZM810.18,664.34v-34.4h8.29v34.4h-8.29Z"/>
    <path class="cls-2" d="M839.41,676.18c-3.73,0-6.79-.29-9.18-.86-2.39-.57-4.15-1.43-5.29-2.56-1.14-1.14-1.71-2.54-1.71-4.21,0-2.02.8-3.67,2.4-4.97,1.6-1.29,3.98-2.09,7.14-2.4v-1.32c-2.37.04-4.17-.21-5.39-.76-1.23-.55-1.84-1.44-1.84-2.66s.6-2.24,1.81-3.16c1.21-.92,3.21-1.69,6.02-2.3v-1.32c-2.68-.13-4.76-.97-6.25-2.53-1.49-1.56-2.24-3.58-2.24-6.08,0-2.24.61-4.21,1.84-5.92,1.23-1.71,3.04-3.06,5.43-4.04,2.39-.99,5.29-1.48,8.71-1.48h17.04v6.58l-10.79-1.58v1.45c2.72.44,4.72,1.21,6.02,2.3,1.29,1.1,1.94,2.59,1.94,4.47s-.57,3.39-1.71,4.77c-1.14,1.38-2.8,2.46-4.97,3.22-2.17.77-4.79,1.15-7.86,1.15-.57,0-1.18-.02-1.84-.07-.66-.04-1.69-.15-3.09-.33-.92.66-1.67,1.24-2.24,1.74-.57.5-.85.98-.85,1.41,0,.35.22.65.66.89.44.24,1.01.41,1.71.49.7.09,1.38.13,2.04.13h9.14c.88,0,2.01.07,3.39.2,1.38.13,2.76.48,4.14,1.05,1.38.57,2.54,1.47,3.49,2.7.94,1.23,1.41,2.96,1.41,5.2,0,2.5-.71,4.55-2.14,6.15-1.43,1.6-3.55,2.77-6.38,3.52-2.83.75-6.35,1.12-10.56,1.12ZM840.13,669.47c2.72,0,4.89-.15,6.51-.46,1.62-.31,2.78-.8,3.49-1.48.7-.68,1.05-1.55,1.05-2.6,0-.96-.22-1.72-.66-2.27-.44-.55-1-.93-1.68-1.15-.68-.22-1.37-.35-2.07-.39-.7-.04-1.29-.07-1.78-.07h-8.09c-2.1.31-3.59.9-4.44,1.78-.86.88-1.28,1.84-1.28,2.89s.35,1.85,1.05,2.4c.7.55,1.72.91,3.06,1.09,1.34.17,2.95.26,4.83.26ZM840.33,647.43c2.28,0,4.01-.54,5.2-1.61,1.18-1.07,1.78-2.49,1.78-4.24,0-1.88-.6-3.43-1.81-4.64-1.21-1.21-2.95-1.81-5.23-1.81s-4.04.59-5.29,1.78c-1.25,1.18-1.87,2.7-1.87,4.54,0,1.18.27,2.23.82,3.12.55.9,1.36,1.6,2.43,2.11,1.07.5,2.4.76,3.98.76Z"/>
    <path class="cls-2" d="M863.68,664.34v-34.4h6.91l-.2,10.52h1.18c.61-2.59,1.44-4.71,2.47-6.38,1.03-1.67,2.36-2.92,3.98-3.75,1.62-.83,3.51-1.25,5.66-1.25,3.9,0,6.87,1.38,8.91,4.14,2.04,2.76,3.06,7.04,3.06,12.83v18.29h-8.35v-17.43c0-3.73-.56-6.46-1.68-8.19-1.12-1.73-2.77-2.6-4.97-2.6-1.84,0-3.4.58-4.67,1.74-1.27,1.16-2.25,2.7-2.93,4.6-.68,1.91-1.04,4-1.09,6.28v15.59h-8.29Z"/>
    <path class="cls-2" d="M928.54,665.26c-2.24,0-4.22-.42-5.95-1.25-1.73-.83-3.09-2.01-4.08-3.52-.99-1.51-1.48-3.32-1.48-5.43s.43-3.73,1.28-5.13c.86-1.4,1.96-2.55,3.32-3.45,1.36-.9,2.82-1.61,4.37-2.14,1.56-.53,3.06-.88,4.51-1.05l.26,1.51c-1.97,1.05-3.45,2.28-4.44,3.68-.99,1.4-1.48,2.87-1.48,4.41,0,1.27.31,2.41.92,3.42.61,1.01,1.48,1.79,2.6,2.34,1.12.55,2.42.82,3.91.82,1.36,0,2.57-.25,3.65-.76,1.07-.5,2.09-1.19,3.06-2.07l1.38,2.5h-1.51c-.66,1.27-1.47,2.37-2.43,3.29-.97.92-2.09,1.62-3.39,2.1-1.29.48-2.8.72-4.51.72ZM952.22,665.19c-2.33,0-4.57-.54-6.74-1.61-2.17-1.07-4.23-2.54-6.18-4.41-1.95-1.86-3.72-3.96-5.3-6.28-1.58-2.32-2.96-4.72-4.14-7.2-1.18-2.48-2.09-4.9-2.73-7.27-.64-2.37-.95-4.49-.95-6.38,0-2.19.45-4.2,1.35-6.02.9-1.82,2.27-3.29,4.11-4.41,1.84-1.12,4.21-1.68,7.1-1.68,2.67,0,4.91.46,6.71,1.38s3.17,2.15,4.11,3.68c.94,1.54,1.41,3.22,1.41,5.06,0,1.45-.35,2.85-1.05,4.21-.7,1.36-1.84,2.59-3.42,3.68-1.58,1.1-3.75,2.02-6.51,2.76l-.53-1.05c1.31-1.32,2.29-2.63,2.93-3.95.63-1.32.95-2.67.95-4.08s-.35-2.61-1.05-3.62c-.7-1.01-1.82-1.51-3.36-1.51-1.1,0-1.97.25-2.63.76-.66.5-1.14,1.17-1.45,2.01-.31.83-.46,1.78-.46,2.83,0,1.27.24,2.81.72,4.6.48,1.8,1.15,3.68,2.01,5.66.86,1.97,1.85,3.89,2.99,5.76,1.14,1.86,2.37,3.56,3.68,5.1,1.31,1.54,2.69,2.76,4.11,3.68,1.42.92,2.84,1.38,4.24,1.38,1.1,0,1.96-.28,2.6-.86.64-.57.95-1.31.95-2.24s-.37-1.93-1.12-2.89c-.75-.96-1.81-1.84-3.19-2.63s-3.08-1.4-5.1-1.84v-6.78h15.13v6.18l-11.77-1.78v1.32c4.52.83,7.84,2.08,9.97,3.75,2.13,1.67,3.19,3.79,3.19,6.38,0,1.62-.37,2.98-1.12,4.08-.75,1.1-1.68,1.94-2.8,2.53-1.12.59-2.28,1.02-3.49,1.28-1.21.26-2.27.39-3.19.39Z"/>
    <path class="cls-2" d="M989.51,624.54c-1.67,0-2.95-.36-3.85-1.09-.9-.72-1.35-1.76-1.35-3.12s.45-2.4,1.35-3.12c.9-.72,2.18-1.09,3.85-1.09,1.75,0,3.07.35,3.95,1.05.88.7,1.32,1.75,1.32,3.16s-.45,2.4-1.35,3.12c-.9.72-2.2,1.09-3.91,1.09ZM985.37,664.34v-34.4h8.29v34.4h-8.29Z"/>
    <path class="cls-2" d="M1001.53,664.34v-34.4h6.91l-.2,10.52h1.18c.61-2.59,1.44-4.71,2.47-6.38,1.03-1.67,2.36-2.92,3.98-3.75,1.62-.83,3.51-1.25,5.66-1.25,3.9,0,6.87,1.38,8.91,4.14,2.04,2.76,3.06,7.04,3.06,12.83v18.29h-8.35v-17.43c0-3.73-.56-6.46-1.68-8.19-1.12-1.73-2.77-2.6-4.97-2.6-1.84,0-3.4.58-4.67,1.74-1.27,1.16-2.25,2.7-2.93,4.6-.68,1.91-1.04,4-1.09,6.28v15.59h-8.29Z"/>
    <path class="cls-2" d="M1056.27,665.19c-3.38,0-6.36-.69-8.94-2.07-2.59-1.38-4.62-3.42-6.08-6.12-1.47-2.7-2.2-6.02-2.2-9.96s.76-7.38,2.27-10.03c1.51-2.65,3.56-4.64,6.15-5.95,2.59-1.32,5.5-1.97,8.75-1.97s6.36.68,8.95,2.04c2.59,1.36,4.63,3.39,6.12,6.08,1.49,2.7,2.24,6.04,2.24,10.03s-.75,7.39-2.24,10.06c-1.49,2.68-3.54,4.66-6.15,5.95-2.61,1.29-5.56,1.94-8.85,1.94ZM1056.6,658.88c1.84,0,3.4-.43,4.67-1.28,1.27-.86,2.25-2.14,2.93-3.85.68-1.71,1.02-3.75,1.02-6.12,0-2.5-.36-4.64-1.09-6.41-.72-1.78-1.75-3.15-3.09-4.11-1.34-.96-3.02-1.45-5.03-1.45-1.75,0-3.29.43-4.6,1.28-1.32.85-2.31,2.12-2.99,3.78-.68,1.67-1.02,3.73-1.02,6.18,0,3.86.82,6.82,2.47,8.88,1.64,2.06,3.89,3.09,6.74,3.09Z"/>
    <path class="cls-2" d="M1086.62,664.34l-11.78-34.34h9.21l7.96,27.69h.99l7.96-27.69h8.94l-11.84,34.34h-11.44Z"/>
    <path class="cls-2" d="M1121.28,665.19c-1.89,0-3.57-.36-5.06-1.09-1.49-.72-2.66-1.81-3.52-3.26-.86-1.45-1.28-3.24-1.28-5.39,0-1.8.34-3.33,1.02-4.6.68-1.27,1.7-2.31,3.06-3.12,1.36-.81,3.05-1.49,5.06-2.04,2.02-.55,4.38-1.02,7.1-1.41,1.49-.22,2.71-.44,3.65-.66.94-.22,1.63-.56,2.07-1.02.44-.46.66-1.15.66-2.07,0-1.36-.47-2.53-1.41-3.52-.94-.99-2.47-1.48-4.57-1.48-1.27,0-2.49.22-3.65.66-1.16.44-2.16,1.13-2.99,2.07-.83.94-1.4,2.18-1.71,3.72l-7.43-2.3c.48-1.75,1.18-3.28,2.11-4.57.92-1.29,2.06-2.4,3.42-3.32,1.36-.92,2.92-1.6,4.67-2.04,1.75-.44,3.68-.66,5.79-.66,3.2,0,5.83.52,7.89,1.55,2.06,1.03,3.6,2.63,4.6,4.8,1.01,2.17,1.51,4.97,1.51,8.39v6.45c0,1.49.03,3.04.1,4.64.07,1.6.15,3.2.26,4.8.11,1.6.25,3.15.43,4.64h-7.43c-.18-1.23-.33-2.54-.46-3.95-.13-1.4-.24-2.83-.33-4.28h-1.05c-.61,1.67-1.49,3.19-2.63,4.57-1.14,1.38-2.53,2.48-4.18,3.29-1.64.81-3.54,1.22-5.69,1.22ZM1124.57,659.08c.88,0,1.76-.15,2.66-.46.9-.31,1.79-.77,2.66-1.38.88-.61,1.69-1.37,2.43-2.27.75-.9,1.38-1.96,1.91-3.19l-.13-5.85,1.58.26c-.75.61-1.67,1.1-2.76,1.45-1.1.35-2.25.61-3.45.79-1.21.18-2.41.39-3.62.63-1.21.24-2.29.55-3.26.92-.96.37-1.73.9-2.3,1.58-.57.68-.85,1.61-.85,2.8,0,1.49.48,2.65,1.45,3.49.96.83,2.19,1.25,3.68,1.25Z"/>
    <path class="cls-2" d="M1165.27,665.19c-2.98,0-5.56-.44-7.73-1.32-2.17-.88-3.97-2.11-5.39-3.72-1.43-1.6-2.49-3.48-3.19-5.62-.7-2.15-1.05-4.47-1.05-6.97,0-2.67.36-5.13,1.08-7.37.72-2.24,1.81-4.19,3.26-5.85,1.45-1.67,3.23-2.96,5.36-3.88,2.13-.92,4.57-1.38,7.33-1.38s5.16.46,7.2,1.38c2.04.92,3.69,2.2,4.97,3.85,1.27,1.64,2.13,3.56,2.57,5.76l-7.76,2.43c-.09-1.31-.44-2.49-1.05-3.52-.61-1.03-1.45-1.83-2.5-2.4-1.05-.57-2.3-.86-3.75-.86s-2.62.27-3.65.82c-1.03.55-1.89,1.33-2.56,2.34-.68,1.01-1.21,2.23-1.58,3.65-.37,1.43-.56,3.02-.56,4.77,0,2.41.33,4.47.99,6.18.66,1.71,1.67,3.04,3.03,3.98,1.36.94,3.05,1.41,5.07,1.41,1.8,0,3.26-.34,4.37-1.02,1.12-.68,1.97-1.57,2.57-2.66.59-1.1.95-2.3,1.09-3.62l7.37,1.64c-.26,1.8-.77,3.42-1.51,4.87-.75,1.45-1.77,2.71-3.06,3.78-1.29,1.07-2.84,1.9-4.64,2.47-1.8.57-3.88.86-6.25.86ZM1156.91,679.07l1.12-4.34c.7.13,1.6.25,2.7.36,1.1.11,2.19.14,3.29.1,1.1-.04,2.02-.26,2.76-.66.75-.39,1.12-1.03,1.12-1.91,0-.31-.06-.61-.16-.92-.11-.31-.42-.58-.92-.82-.5-.24-1.31-.43-2.4-.56-1.1-.13-2.61-.15-4.54-.07l.72-6.31h4.47l-.39,4.08c2.02-.09,3.66.05,4.93.43,1.27.37,2.21.94,2.83,1.71.61.77.92,1.74.92,2.93,0,1.8-.57,3.2-1.71,4.21-1.14,1.01-2.58,1.71-4.31,2.11-1.73.39-3.53.54-5.39.43-1.86-.11-3.54-.36-5.03-.76Z"/>
    <path class="cls-2" d="M1194.27,665.19c-1.89,0-3.58-.36-5.07-1.09-1.49-.72-2.66-1.81-3.52-3.26-.86-1.45-1.28-3.24-1.28-5.39,0-1.8.34-3.33,1.02-4.6.68-1.27,1.7-2.31,3.06-3.12,1.36-.81,3.05-1.49,5.06-2.04,2.02-.55,4.38-1.02,7.1-1.41,1.49-.22,2.71-.44,3.65-.66.94-.22,1.63-.56,2.07-1.02.44-.46.66-1.15.66-2.07,0-1.36-.47-2.53-1.41-3.52-.94-.99-2.47-1.48-4.57-1.48-1.27,0-2.49.22-3.65.66-1.16.44-2.16,1.13-2.99,2.07-.83.94-1.4,2.18-1.71,3.72l-7.43-2.3c.48-1.75,1.18-3.28,2.11-4.57.92-1.29,2.06-2.4,3.42-3.32,1.36-.92,2.92-1.6,4.67-2.04,1.75-.44,3.68-.66,5.79-.66,3.2,0,5.83.52,7.89,1.55,2.06,1.03,3.6,2.63,4.6,4.8,1.01,2.17,1.51,4.97,1.51,8.39v6.45c0,1.49.03,3.04.1,4.64.07,1.6.15,3.2.26,4.8.11,1.6.25,3.15.43,4.64h-7.43c-.18-1.23-.33-2.54-.46-3.95-.13-1.4-.24-2.83-.33-4.28h-1.05c-.61,1.67-1.49,3.19-2.63,4.57-1.14,1.38-2.53,2.48-4.18,3.29-1.64.81-3.54,1.22-5.69,1.22ZM1207.23,625.33c-.92,0-1.9-.18-2.93-.53-1.03-.35-2.04-.76-3.03-1.22-.99-.46-1.91-.87-2.76-1.22-.86-.35-1.57-.53-2.14-.53-.7,0-1.15.3-1.35.89-.2.59-.23,1.31-.1,2.14h-4.01c-.61-1.53-.83-2.94-.66-4.21.17-1.27.68-2.3,1.51-3.09.83-.79,1.88-1.18,3.16-1.18.92,0,1.87.18,2.86.53.99.35,1.98.75,2.99,1.18,1.01.44,1.93.83,2.76,1.18.83.35,1.51.53,2.04.53.75,0,1.22-.33,1.41-.99.2-.66.23-1.36.1-2.11h3.95c.53,1.45.73,2.83.63,4.14-.11,1.31-.53,2.39-1.25,3.22-.72.83-1.79,1.25-3.19,1.25ZM1197.56,659.08c.88,0,1.77-.15,2.66-.46.9-.31,1.79-.77,2.66-1.38.88-.61,1.69-1.37,2.43-2.27.75-.9,1.38-1.96,1.91-3.19l-.13-5.85,1.58.26c-.75.61-1.67,1.1-2.76,1.45-1.1.35-2.25.61-3.45.79-1.21.18-2.41.39-3.62.63-1.21.24-2.29.55-3.26.92-.97.37-1.73.9-2.3,1.58-.57.68-.85,1.61-.85,2.8,0,1.49.48,2.65,1.45,3.49.96.83,2.19,1.25,3.68,1.25Z"/>
    <path class="cls-2" d="M1238.1,665.19c-3.38,0-6.36-.69-8.95-2.07-2.59-1.38-4.62-3.42-6.08-6.12-1.47-2.7-2.2-6.02-2.2-9.96s.76-7.38,2.27-10.03c1.51-2.65,3.56-4.64,6.15-5.95,2.59-1.32,5.5-1.97,8.75-1.97s6.36.68,8.95,2.04c2.59,1.36,4.63,3.39,6.12,6.08,1.49,2.7,2.24,6.04,2.24,10.03s-.75,7.39-2.24,10.06c-1.49,2.68-3.54,4.66-6.15,5.95-2.61,1.29-5.56,1.94-8.85,1.94ZM1238.43,658.88c1.84,0,3.4-.43,4.67-1.28,1.27-.86,2.25-2.14,2.93-3.85.68-1.71,1.02-3.75,1.02-6.12,0-2.5-.36-4.64-1.09-6.41-.72-1.78-1.75-3.15-3.09-4.11-1.34-.96-3.02-1.45-5.03-1.45-1.75,0-3.29.43-4.6,1.28-1.32.85-2.31,2.12-2.99,3.78-.68,1.67-1.02,3.73-1.02,6.18,0,3.86.82,6.82,2.47,8.88,1.64,2.06,3.89,3.09,6.74,3.09Z"/>
  </g>
  <path class="cls-1" d="M278.7,579.04v-114.34h-25.82v-37.15c8.6,0,15.54-1.54,20.81-4.61,5.27-3.07,8.69-9,10.28-17.78h37.67v173.88h-42.94Z"/>
  <path class="cls-1" d="M423.35,587.92c-15.28,0-28.58-1.76-39.91-5.27-11.33-3.51-20.11-8.91-26.34-16.2-6.24-7.29-9.35-16.37-9.35-27.27,0-8.25,1.67-15.32,5.01-21.21,3.33-5.88,8.04-10.62,14.09-14.22,6.06-3.6,13.04-5.84,20.95-6.72v-2.37l35.56-6.85,36.09,6.85v2.37c7.9.88,14.84,3.07,20.81,6.59,5.97,3.51,10.58,8.26,13.83,14.23,3.25,5.97,4.87,13.09,4.87,21.34,0,10.89-3.12,19.98-9.35,27.27-6.24,7.29-15.02,12.69-26.34,16.2-11.33,3.51-24.63,5.27-39.91,5.27ZM423.35,506.52l-35.56-8.96v-3.42c-7.73-1.4-14.1-3.78-19.1-7.11-5.01-3.34-8.69-7.68-11.07-13.04-2.37-5.36-3.56-11.46-3.56-18.31,0-11.41,2.94-20.85,8.83-28.32,5.88-7.46,14-12.99,24.37-16.6,10.36-3.6,22.39-5.4,36.09-5.4s26.25,1.89,36.62,5.66c10.36,3.78,18.4,9.35,24.11,16.73,5.71,7.38,8.56,16.69,8.56,27.92,0,10.01-2.55,18.36-7.64,25.03-5.1,6.68-13.61,11.15-25.55,13.44v3.16l-36.09,9.22ZM423.61,553.15c3.69,0,7.42-.4,11.2-1.19,3.78-.79,7.25-2.02,10.41-3.69,3.16-1.67,5.75-3.86,7.77-6.59,2.02-2.72,3.03-6.1,3.03-10.14,0-4.74-1.41-8.56-4.21-11.46-2.81-2.9-6.68-4.96-11.59-6.19-4.92-1.23-10.54-1.84-16.86-1.84s-11.9.62-16.73,1.84c-4.83,1.23-8.56,3.25-11.2,6.06-2.63,2.81-3.95,6.59-3.95,11.33,0,3.87.92,7.2,2.76,10.01,1.85,2.81,4.35,5.1,7.51,6.85,3.16,1.76,6.67,3.03,10.54,3.82,3.86.79,7.64,1.19,11.33,1.19ZM423.35,481.23c4.74,0,9.04-.61,12.91-1.84,3.86-1.23,6.94-3.29,9.22-6.19,2.28-2.9,3.42-6.8,3.42-11.72,0-4.04-.79-7.42-2.37-10.14-1.58-2.72-3.65-4.92-6.19-6.59-2.55-1.67-5.31-2.85-8.3-3.56-2.99-.7-5.89-1.05-8.69-1.05-4.04,0-7.99.66-11.85,1.98-3.87,1.32-7.07,3.51-9.62,6.59-2.55,3.07-3.82,7.24-3.82,12.51,0,4.92,1.1,8.87,3.29,11.85,2.19,2.99,5.22,5.1,9.09,6.32,3.86,1.23,8.17,1.84,12.91,1.84Z"/>
  <path class="cls-1" d="M656.68,544.77v33.72h-139.1v-42.15l69.29-43.47c2.81-1.75,5.72-3.77,8.69-6.06,2.99-2.27,5.75-4.91,8.31-7.9,2.54-2.99,4.61-6.29,6.19-9.88,1.58-3.61,2.37-7.59,2.37-12s-1.01-8.43-3.04-11.59c-2.02-3.16-4.91-5.58-8.68-7.24-3.78-1.68-8.4-2.51-13.84-2.51-6.14,0-11.11.97-14.88,2.91-3.79,1.93-6.68,4.61-8.69,8.03-2.03,3.43-3.39,7.34-4.08,11.73-.71,4.38-1.05,8.95-1.05,13.7l-40.84-8.69c-.35-13.17,2.29-24.45,7.9-33.85,5.62-9.39,13.75-16.64,24.37-21.74,10.63-5.09,23.31-7.64,38.07-7.64,13,0,24.54,2.02,34.64,6.06,10.1,4.04,18.01,10.06,23.72,18.04,5.71,7.99,8.55,17.96,8.55,29.9,0,8.78-1.49,16.72-4.48,23.85-2.99,7.11-6.84,13.39-11.59,18.83-4.75,5.45-9.97,10.24-15.68,14.37-5.71,4.12-11.19,7.69-16.46,10.66l-38.73,21.61v1.31h89.04Z"/>
  <g>
    <path class="cls-2" d="M809.22,416.9c-13.49-6.74-30.86-10.11-52.13-10.11h-62.24v171.16h70.28c7.78,0,15.6-.86,23.47-2.59,7.87-1.73,15.39-4.62,22.56-8.69,7.17-4.06,13.53-9.42,19.06-16.08,5.53-6.65,9.89-14.91,13.1-24.77,3.2-9.86,4.8-21.52,4.8-35.01,0-17.46-3.11-32.46-9.34-44.99-6.22-12.53-16.08-22.17-29.56-28.92ZM733.03,445.15h28.91c7.17,0,13.42.96,18.75,2.87,5.33,1.91,9.71,4.82,13.14,8.72,3.42,3.91,6.01,8.88,7.77,14.93,1.75,6.05,2.63,13.3,2.63,21.74,0,10.51-1.4,19.27-4.18,26.28-2.79,7.01-6.97,12.27-12.54,15.77-5.58,3.51-12.51,5.26-20.78,5.26h-33.69v-95.56Z"/>
    <rect class="cls-2" x="867.21" y="406.79" width="38.18" height="171.79"/>
    <rect class="cls-2" x="1102.25" y="406.79" width="38.18" height="171.79"/>
    <polygon class="cls-2" points="1210.09 406.51 1159.51 406.51 1159.51 444.68 1210.09 444.68 1210.09 578.3 1254.95 578.3 1254.95 444.68 1303.88 444.68 1303.88 406.51 1254.95 406.51 1210.09 406.51"/>
    <path class="cls-2" d="M1417.84,406.51h-62.17l-58.3,171.79h46.28l9.04-30.58h68.13l9.05,30.58h46.27l-58.3-171.79ZM1361.11,519.27l23.54-79.56h4.21l23.54,79.56h-51.3Z"/>
    <polygon class="cls-2" points="1533.41 540.12 1533.41 406.51 1495.23 406.51 1495.23 578.3 1502.87 578.3 1533.41 578.3 1609.76 578.3 1609.76 540.12 1533.41 540.12"/>
    <path class="cls-2" d="M1034.45,487.97h-20.51v33.06h28.89c-.63,4.97-2.09,9.2-4.41,12.68-3,4.49-7.04,7.83-12.12,9.99-5.08,2.17-11.12,3.25-18.12,3.25s-13.04-1.13-18.12-3.37c-4.44-1.96-8.27-4.79-11.5-8.47-.47-.53-.92-1.09-1.37-1.66-3.5-4.49-6.12-10.12-7.87-16.87-1.75-6.74-2.62-14.62-2.62-23.61,0-12,1.54-21.99,4.63-29.99,3.08-7.99,7.58-13.95,13.49-17.86.29-.19.57-.37.87-.54,3.79-2.35,8.13-3.92,13.01-4.72,2.52-.41,5.19-.62,7.99-.62,6.16,0,11.75,1.12,16.74,3.37,1.37.62,2.66,1.3,3.87,2.06,3.24,2.02,5.94,4.54,8.12,7.56,3,4.17,4.58,9.33,4.75,15.49l24.19-7.48,13.8-4.26c-.17-7.49-1.96-14.24-5.37-20.24-3.42-6-8.21-11.16-14.37-15.49-6.16-4.33-13.46-7.66-21.86-10-8.41-2.33-17.79-3.5-28.11-3.5-2.62,0-5.19.07-7.68.22-10.54.62-20.02,2.54-28.43,5.77-10.41,4-19.2,9.79-26.36,17.37-7.17,7.59-12.53,16.79-16.11,27.61-3.59,10.83-5.38,23.16-5.38,36.99,0,18.82,3.13,34.44,9.37,46.85,6.25,12.41,14.78,21.7,25.62,27.87,10.82,6.16,22.99,9.24,36.49,9.24,10.32,0,18.99-1.71,25.99-5.12.4-.2.79-.4,1.18-.6.04-.02.08-.05.12-.06,1.28-.68,2.51-1.41,3.71-2.2.02-.02.05-.03.06-.04,4.76-3.02,9.26-6.66,13.51-10.91,3.8-3.81,6.97-7.63,9.47-11.45v30h33.16v-90.32h-48.71Z"/>
  </g>
  <rect class="cls-1" x="1628.95" y="540.21" width="38.17" height="38.18"/>
</svg>